<?xml version="1.0" standalone="no"?><!DOCTYPE svg PUBLIC "-//W3C//DTD SVG 1.1//EN" "http://www.w3.org/Graphics/SVG/1.1/DTD/svg11.dtd"><svg t="1646189280961" class="icon" viewBox="0 0 1024 1024" version="1.1" xmlns="http://www.w3.org/2000/svg" p-id="10332" xmlns:xlink="http://www.w3.org/1999/xlink" width="200" height="200"><defs><style type="text/css"></style></defs><path d="M693.8 1014.1c16.5-7.5 23.8-27.1 16.3-43.6L589.3 705.3c-7.5-16.5-27.1-23.8-43.6-16.3s-23.8 27.1-16.3 43.6l120.8 265.2c7.6 16.5 27.1 23.8 43.6 16.3zM212.2 1014.1c-16.5-7.5-23.8-27.1-16.3-43.6l120.8-265.2c7.5-16.5 27.1-23.8 43.6-16.3s23.8 27.1 16.3 43.6L255.8 997.8c-7.5 16.5-27 23.8-43.6 16.3z" fill="#37474F" p-id="10333"></path><path d="M453 492.4m-366.9 0a366.9 366.9 0 1 0 733.8 0 366.9 366.9 0 1 0-733.8 0Z" fill="#F44336" p-id="10334"></path><path d="M453 224.5c-148 0-267.9 119.9-267.9 267.9s120 267.9 267.9 267.9c148 0 267.9-119.9 267.9-267.9S601 224.5 453 224.5z m0 420.1c-84 0-152.1-68.1-152.1-152.1S369 340.4 453 340.4s152.1 68.1 152.1 152.1c0.1 84-68 152.1-152.1 152.1z" fill="#FFFFFF" p-id="10335"></path><path d="M599.4 716.8l59.4 79.5c10.6-7.2 20.7-14.8 30.4-23l-59.4-79.5c-9.6 8.3-19.7 16-30.4 23zM436 498.2l93.9 125.6c11-6.5 21.2-14.3 30.2-23.3l-97-129.7-27.1 27.4z" fill="#E53935" p-id="10336"></path><path d="M560.1 600.5c-9 9-19.2 16.8-30.2 23.3l69.5 93c10.7-7 20.8-14.7 30.4-23.1l-69.7-93.2z" fill="#EF9A9A" p-id="10337"></path><path d="M766.1 316.5l-102.5-18.1L837.1 125c2.1-2.1 5-3 7.8-2.5l85.6 15.1c7.1 1.3 9.8 10 4.7 15.1L773.9 314c-2 2.1-5 3-7.8 2.5zM813.5 99.9l-15.1-85.6c-1.3-7.1-10-9.8-15.1-4.7L621.9 170.9c-2.1 2.1-3 5-2.5 7.8l18.1 102.5L811 107.8c2-2.1 3-5 2.5-7.9z" fill="#37474F" p-id="10338"></path><path d="M438.8 501.6c-7-7-7-18.2 0-25.2L858.2 57c7-7 18.2-7 25.2 0s7 18.2 0 25.2L464 501.6c-7 7-18.3 7-25.2 0z" fill="#455A64" p-id="10339"></path></svg>